<?xml version="1.0" encoding="UTF-8" standalone="no"?>
<svg
   version="1.0"
   width="691"
   height="493.90286"
   viewBox="0 0 691 493.90286"
   preserveAspectRatio="xMidYMid"
   id="svg50"
   sodipodi:docname="logoSportify_vectorized_fit.svg"
   inkscape:version="1.4.4 (dcaf3e7d9e, 2026-05-05)"
   xmlns:inkscape="http://www.inkscape.org/namespaces/inkscape"
   xmlns:sodipodi="http://sodipodi.sourceforge.net/DTD/sodipodi-0.dtd"
   xmlns="http://www.w3.org/2000/svg"
   xmlns:svg="http://www.w3.org/2000/svg">
  <defs
     id="defs50" />
  <sodipodi:namedview
     id="namedview50"
     pagecolor="#595959"
     bordercolor="#666666"
     borderopacity="1.0"
     inkscape:showpageshadow="2"
     inkscape:pageopacity="0.0"
     inkscape:pagecheckerboard="0"
     inkscape:deskcolor="#d1d1d1"
     showgrid="false"
     inkscape:zoom="0.4417749"
     inkscape:cx="374.62517"
     inkscape:cy="341.80303"
     inkscape:window-width="662"
     inkscape:window-height="698"
     inkscape:window-x="688"
     inkscape:window-y="54"
     inkscape:window-maximized="1"
     inkscape:current-layer="g51" />
  <g
     fill="#d7edca"
     id="g3"
     transform="translate(-167,-259.05679)" />
  <g
     id="g50"
     transform="translate(-167,-259.05678)">
    <path
       d="m 272.3,749.8 c 1.1,-4.5 7.7,-43.9 14.2,-83.8 3.5,-22.3 6.7,-41.5 7,-42.7 0.5,-2.2 0.9,-2.3 12,-2.3 6.2,0 11.6,0.4 11.9,0.8 0.3,0.5 0.2,3.2 -0.3,6 -0.4,2.9 -0.6,5.2 -0.3,5.2 0.2,0 2.2,-1.6 4.3,-3.5 14,-12.6 38.2,-13.5 51.8,-1.9 8.5,7.4 12.7,20.4 11.9,37.2 -1.6,30.1 -23.4,53.1 -50.4,53.2 -10.8,0 -19.6,-3.9 -24.9,-11 l -2.3,-3.1 -1.1,6.8 c -0.6,3.7 -2.4,14.5 -3.9,23.8 l -2.8,17 -13.8,0.3 -13.8,0.3 z m 68.2,-57.2 c 15.8,-7.3 22.7,-32.3 12.2,-44.3 -3.9,-4.4 -8.2,-6.3 -14.4,-6.3 -13.9,0.1 -24.8,12.9 -26,30.6 -0.8,10.7 2.4,18.1 9.1,21 4.9,2.1 13.4,1.7 19.1,-1 z"
       id="path4"
       style="fill:#010101" />
    <path
       d="m 204.5,717.3 c -5.4,-0.8 -14.8,-3.4 -21,-5.9 -7.4,-3 -16.5,-8.5 -16.5,-9.9 0,-0.8 12.6,-19.4 14.3,-21.1 0.2,-0.2 3.4,1.6 7.1,4.1 9.2,6.1 18.6,8.9 30.1,9 7.6,0 9.7,-0.4 13.9,-2.5 6.5,-3.3 9.1,-6.9 9.1,-12.7 0,-3.8 -0.5,-4.9 -3.5,-7.7 -2.1,-1.9 -6.8,-4.4 -11.5,-6.1 -31.2,-11.1 -38.7,-16.3 -42.2,-29.7 -1.7,-6.7 -1.7,-11 0.2,-18.1 2.1,-8.2 5,-13.3 10.5,-18.8 13.1,-13.1 39.3,-18 61.3,-11.5 9.2,2.7 16.6,6.1 20.6,9.3 l 2.4,1.9 -6.8,10 c -3.7,5.4 -7.1,10 -7.5,10.2 -0.4,0.2 -2.9,-1.1 -5.5,-2.7 -8.3,-5.2 -16.5,-7.4 -26.4,-6.9 -10.1,0.5 -15.5,2.7 -18.8,7.7 -1.3,1.9 -2.3,4.8 -2.3,6.6 0,6.6 5,10 25.9,17.4 14.5,5.2 20.3,8.5 25.7,14.4 8.9,9.9 9.8,25.2 2.3,39.9 -5.1,10 -19.1,19.3 -33.7,22.3 -6.8,1.4 -20.5,1.8 -27.7,0.8 z"
       id="path5"
       style="fill:#010101" />
    <path
       d="m 422.4,716.1 c -16.5,-4.7 -27,-16.6 -29.3,-33.1 -3.1,-23.3 9,-47 29.3,-57.1 20.5,-10.1 44.3,-8.4 58.1,4.2 14.5,13.3 17.4,36.2 7.3,56.9 -4.3,8.9 -16,20.6 -24.8,24.8 -13.4,6.3 -28.2,7.9 -40.6,4.3 z m 26.2,-23 c 10.2,-4.6 16.5,-14.5 17.2,-27 0.2,-4.1 -0.1,-9.1 -0.7,-11.1 -4.3,-14.3 -22.4,-17.5 -35.3,-6.2 -7.3,6.5 -12,24.1 -8.8,33.6 1.5,4.7 5.6,9.5 9.5,11.2 4.4,1.9 13.3,1.7 18.1,-0.5 z"
       id="path6"
       style="fill:#010101" />
    <path
       d="m 596.5,717.1 c -4.4,-1.1 -10.7,-4.6 -13.2,-7.3 -6.5,-6.9 -6.7,-14.8 -1.3,-43.9 2.2,-11.7 4,-21.7 4,-22.1 0,-0.5 -2.9,-0.8 -6.5,-0.8 h -6.6 l 0.6,-3.2 c 0.3,-1.8 1.2,-6.4 1.8,-10.3 l 1.3,-7 6.6,-0.3 6.5,-0.3 2.3,-11.9 2.4,-12 h 12.8 c 7,0 12.8,0.3 12.8,0.8 0,0.9 -2.7,16.7 -3.6,20.5 l -0.6,2.7 h 12.2 12.3 l -0.6,2.8 c -0.3,1.5 -1.1,6.2 -1.7,10.5 l -1.3,7.7 h -11.8 c -11.5,0 -11.9,0.1 -12.3,2.3 -2.5,12.3 -6.6,38.2 -6.6,41.8 0,3.2 0.6,5.1 1.8,6.2 2.3,2.1 9.7,2.2 13.2,0.2 1.4,-0.8 2.8,-1.4 3.1,-1.5 0.3,0 1.6,4.5 2.9,10.1 2.8,11.5 3.1,10.8 -6.9,13.9 -6.4,2 -17.6,2.5 -23.6,1.1 z"
       id="path7"
       style="fill:#010101" />
    <path
       d="m 499.5,711.3 c 0.3,-2.7 3.9,-23.9 7.8,-47.3 l 7.2,-42.5 h 12 c 13.5,0 12.5,-0.8 11.2,8.9 l -0.7,4.9 5,-4.7 c 6.3,-5.9 15.6,-10.3 23.8,-11.2 7.4,-0.8 7,-1.9 3.9,14.5 l -2.2,11.4 -6,0.2 c -12.1,0.5 -22.2,7.7 -26.3,18.9 -1.5,3.8 -9.2,46.8 -9.2,50.9 0,0.4 -6.1,0.7 -13.6,0.7 h -13.6 z"
       id="path8"
       style="fill:#010101" />
    <path
       d="m 751.7,751.9 c -2.1,-0.5 -5,-1.5 -6.6,-2.3 l -2.8,-1.5 3.4,-9.8 c 1.8,-5.4 3.6,-10.4 3.8,-11.1 0.4,-1 1.1,-0.9 3.4,0.3 7.4,3.8 19,0.6 23.6,-6.4 2.6,-4 3.5,-3.9 3.5,0.5 0,2.7 -0.5,3.7 -2,4.1 -1.1,0.3 -2,1.1 -2,1.9 0,2.9 -6.2,4.9 -15.3,4.9 h -8.8 L 750,739 c -1.8,6 -1.9,6.6 -0.3,7.7 0.9,0.7 3.8,1.6 6.5,1.9 3.8,0.5 4.8,1 4.8,2.5 0,2.1 -2.7,2.4 -9.3,0.8 z"
       id="path14"
       style="fill:#67bd38;fill-opacity:1" />
    <path
       d="m 762,751.3 c 0,-1.6 0.8,-2.2 4.1,-2.6 2.3,-0.3 7,-1.9 10.4,-3.6 3.4,-1.7 6.8,-3.1 7.4,-3.1 0.6,0 1.1,-0.5 1.1,-1.2 0,-1.6 5.1,-6.8 6.7,-6.8 0.7,0 1.3,-0.9 1.3,-2 0,-1.1 0.5,-2 1,-2 0.6,0 1,-0.7 1,-1.5 0,-0.8 0.4,-1.5 0.9,-1.5 0.5,0 1.2,-1.1 1.5,-2.5 0.4,-1.4 1.1,-2.5 1.6,-2.5 0.6,0 1,-0.6 1,-1.4 0,-0.8 0.6,-2.1 1.3,-2.8 0.7,-0.7 2.1,-3.2 3.1,-5.5 1.1,-2.4 2.5,-4.3 3.3,-4.3 0.7,0 1.3,-0.9 1.3,-2 0,-2 2.6,-7.9 3.9,-9 0.3,-0.3 1.7,-2.9 3,-5.7 1.4,-2.9 3,-5.3 3.8,-5.3 0.7,0 1.3,-0.9 1.3,-1.9 0,-3 1.1,-5.1 2.6,-5.1 0.8,0 1.4,-0.9 1.4,-2 0,-2.9 3.2,-9 4.7,-9 0.7,0 1.3,-0.9 1.3,-2 0,-2.9 3.2,-9 4.7,-9 0.7,0 1.3,-0.9 1.3,-2.1 0,-2 1.6,-5.9 2.9,-6.9 0.3,-0.3 1.7,-2.9 3,-5.7 1.4,-2.9 3,-5.3 3.8,-5.3 0.7,0 1.3,-0.9 1.3,-2 0,-2.9 3.1,-8.9 4.9,-9.3 1.3,-0.4 1.3,-0.5 -0.1,-0.6 -3,-0.2 -2,-2.9 1.3,-3.6 6.3,-1.4 7.3,-3.7 -19.5,45 -4.9,8.8 -13.8,25 -19.8,36 -14.1,25.8 -20.6,35.4 -27.4,40.9 -5.7,4.7 -13.9,8.3 -21,9.3 -3.9,0.5 -4.4,0.4 -4.4,-1.4 z"
       id="path15"
       style="fill:#67bd38;fill-opacity:1" />
    <path
       d="m 780.1,714.1 c 1,-3 -0.2,-8.2 -15.5,-67.3 -3.5,-13.6 -6.1,-25 -5.7,-25.2 0.4,-0.3 1.7,-0.3 2.9,0 1.4,0.4 2,1.4 2,3.2 0,1.5 2.3,11.7 5.1,22.7 13,49.8 15.1,58.7 15.1,64 0,5.2 -0.1,5.5 -2.4,5.5 -2.3,0 -2.4,-0.2 -1.5,-2.9 z"
       id="path16"
       style="fill:#67bd38;fill-opacity:1" />
    <path
       d="m 639.5,711.8 c 0.4,-2.4 3.9,-23.6 7.9,-47.3 l 7.1,-43 13.3,-0.3 c 11.2,-0.2 13.2,0 13.2,1.2 0,2.1 -13.5,86.9 -14.5,91.4 -0.7,2.7 -3.5,3 -3.5,0.3 0,-1.5 11.1,-72.9 13.5,-86.4 l 0.5,-2.8 -9.7,0.3 -9.7,0.3 -7.4,45.3 c -6.8,41.2 -7.7,45.2 -9.4,45.2 -1.7,0 -1.8,-0.5 -1.3,-4.2 z"
       id="path17"
       style="fill:#67bd38;fill-opacity:1" />
    <path
       d="m 691,714.8 c 0,-0.7 2.5,-16.5 5.5,-35.1 3,-18.6 5.5,-34.5 5.5,-35.3 0,-0.7 -0.7,-1.4 -1.5,-1.4 -0.8,0 -1.5,-0.7 -1.5,-1.5 0,-1 1.1,-1.5 3.5,-1.5 3,0 3.5,0.4 3.5,2.3 0,1.2 -2.5,18.3 -5.7,38 -5.1,31.2 -6,35.7 -7.5,35.7 -1,0 -1.8,-0.6 -1.8,-1.2 z"
       id="path18"
       style="fill:#67bd38;fill-opacity:1" />
    <path
       d="m 714.4,712.8 c 0.9,-4.8 9.5,-57.1 10.7,-65.5 l 1.1,-7.3 h 3.4 c 3.6,0 4.9,2.6 1.7,3.2 -1.3,0.2 -2.5,5.5 -6.4,29.8 -2.7,16.2 -5.4,32.5 -6,36.3 -0.9,5.7 -1.4,6.7 -3.1,6.7 -1.7,0 -1.9,-0.5 -1.4,-3.2 z"
       id="path19"
       style="fill:#67bd38;fill-opacity:1" />
    <path
       d="m 795,682.3 c -0.6,-3.2 -3.6,-16.7 -6.6,-30.1 -5.8,-26 -6.3,-30.2 -3.9,-30.2 0.8,0 1.5,0.2 1.5,0.5 0,0.5 5.6,26 12.8,58.5 l 0.8,3.5 3.7,-7.7 c 2.1,-4.3 4.2,-7.8 4.7,-7.8 2.4,0 -0.2,11.1 -3,13 -0.5,0.3 -1,1.6 -1.1,3 -0.3,2.1 -1,2.6 -4.1,2.8 l -3.6,0.3 z"
       id="path20"
       style="fill:#67bd38;fill-opacity:1" />
    <path
       d="m 466.3,663.5 c 0,-2.2 0.2,-3 0.4,-1.7 0.2,1.2 0.2,3 0,4 -0.3,0.9 -0.5,-0.1 -0.4,-2.3 z"
       id="path21"
       style="fill:#67bd38;fill-opacity:1" />
    <path
       d="m 811,662.3 c 0,-0.5 4.7,-9.6 10.4,-20.3 9.7,-18.3 13.6,-23.5 13.6,-18.2 0,3.1 -1.1,5.2 -2.6,5.2 -0.8,0 -1.4,0.9 -1.4,2 0,3.5 -6.3,15 -8.2,15 -1.3,0 -1.8,0.8 -1.8,3 0,1.6 -1.2,5.4 -2.7,8.5 -2.1,4.3 -3.2,5.5 -5,5.5 -1.3,0 -2.3,-0.3 -2.3,-0.7 z"
       id="path22"
       style="fill:#67bd38;fill-opacity:1" />
    <path
       d="m 689,641.7 c 0,-0.7 0.5,-4 1,-7.3 0.6,-3.2 1.3,-7.4 1.6,-9.1 0.6,-4.3 3.4,-4.5 3.4,-0.3 0,1.6 -0.5,6.3 -1.1,10.5 -1,6.3 -1.4,7.5 -3,7.5 -1.1,0 -1.9,-0.6 -1.9,-1.3 z"
       id="path23"
       style="fill:#67bd38;fill-opacity:1" />
    <path
       d="m 749.3,640.3 c 0.3,-1.6 1.1,-6.3 1.7,-10.5 1.1,-6.6 1.6,-7.8 3.2,-7.8 2.1,0 2.2,-0.7 -0.4,14.8 -0.8,5.2 -1.3,6.2 -3,6.2 -1.7,0 -2,-0.5 -1.5,-2.7 z"
       id="path24"
       style="fill:#67bd38;fill-opacity:1" />
    <path
       d="m 317,623.7 c 0,-0.8 -0.8,-1.8 -1.7,-2 -1.7,-0.4 -1.7,-0.5 0,-0.6 1.8,-0.1 3.5,2.5 2.3,3.6 -0.3,0.4 -0.6,-0.1 -0.6,-1 z"
       id="path25"
       style="fill:#67bd38;fill-opacity:1" />
    <path
       d="m 538,623.7 c 0,-0.8 -0.8,-1.8 -1.7,-2 -1.7,-0.4 -1.7,-0.5 0,-0.6 1.8,-0.1 3.5,2.5 2.3,3.6 -0.3,0.4 -0.6,-0.1 -0.6,-1 z"
       id="path26"
       style="fill:#67bd38;fill-opacity:1" />
    <path
       d="m 703,623.5 c 0,-0.8 0.7,-1.5 1.5,-1.5 0.8,0 1.5,-0.2 1.5,-0.5 0,-0.3 0.7,-4 1.6,-8.2 3.2,-15.5 11.5,-26.1 23.6,-30.2 8,-2.7 10.8,-2.7 10.8,-0.1 0,1.2 -0.7,2 -1.7,2 -2.6,0 -14.3,4.2 -14.3,5.2 0,0.4 -1.6,0.8 -3.5,0.8 -3.3,0 -3.5,0.2 -3.5,3.3 -0.1,3.4 -1.9,6.7 -3.9,6.7 -0.6,0 -1.1,1.1 -1.1,2.4 0,1.3 -0.7,4.3 -1.5,6.6 -0.8,2.4 -1.8,6.7 -2.1,9.7 -0.7,5.2 -0.7,5.3 -4,5.3 -2.4,0 -3.4,-0.5 -3.4,-1.5 z"
       id="path27"
       style="fill:#67bd38;fill-opacity:1" />
    <path
       d="m 730,618.2 c 0,-5.5 2.8,-14.2 4.5,-14.2 0.8,0 1.5,-0.7 1.5,-1.5 0,-2.2 6.3,-3.4 16.6,-3.2 9.7,0.1 10.2,0.5 7,5 -1.2,1.6 -1.6,1.6 -4.9,0.2 -4.6,-1.9 -11,-1.9 -14.7,0 -2.9,1.5 -5.3,6.5 -6.5,13.8 -0.8,5.1 -3.5,5.1 -3.5,-0.1 z"
       id="path28"
       style="fill:#67bd38;fill-opacity:1" />
    <path
       d="m 346.8,619.3 c 1.2,-0.2 3.2,-0.2 4.5,0 1.2,0.2 0.2,0.4 -2.3,0.4 -2.5,0 -3.5,-0.2 -2.2,-0.4 z"
       id="path29"
       style="fill:#67bd38;fill-opacity:1" />
    <path
       d="m 663.3,607.5 c -5.5,-2.4 -9.7,-11.5 -5.3,-11.5 1.2,0 2,0.7 2,1.8 0.1,0.9 1.7,2.9 3.7,4.5 4,3 8.8,3.5 11.9,1.2 1,-0.8 3.1,-1.5 4.7,-1.5 2.1,0 2.7,-0.5 2.7,-2.2 0,-4.4 1.2,-6.8 3.2,-6.8 1.8,0 2,0.4 1.4,3.2 -0.8,3.9 -5.9,9.5 -10.3,11.4 -4.1,1.8 -9.9,1.7 -14,-0.1 z"
       id="path30"
       style="fill:#67bd38;fill-opacity:1" />
    <path
       d="m 656.4,591.8 c 1.4,-7 9.8,-13.8 17.1,-13.8 7.2,0 14.5,6 14.5,12 0,2.8 -3.6,2.7 -4.4,-0.2 -1.2,-4.6 -4.3,-7.1 -8.9,-7.1 -5.7,0 -11.7,2.3 -11.7,4.5 0,1 -0.4,1.8 -0.9,1.8 -0.5,0 -1.2,1.4 -1.6,3 -0.5,2.1 -1.2,3 -2.7,3 -1.8,0 -2,-0.4 -1.4,-3.2 z"
       id="path31"
       style="fill:#67bd38;fill-opacity:1" />
    <path
       d="m 759,587 c -2.5,-1.1 -5.7,-1.9 -7.2,-1.9 -2.1,-0.1 -2.8,-0.6 -2.8,-2.1 0,-1.5 0.7,-2 2.8,-2 4.5,0.1 15.7,4.3 15.7,6 0,2.1 -3.3,2.1 -8.5,0 z"
       id="path32"
       style="fill:#67bd38;fill-opacity:1" />
    <path
       d="m 233.8,583.3 c 1.2,-0.2 3.2,-0.2 4.5,0 1.2,0.2 0.2,0.4 -2.3,0.4 -2.5,0 -3.5,-0.2 -2.2,-0.4 z"
       id="path33"
       style="fill:#67bd38;fill-opacity:1" />
    <path
       d="m 753,751.6 c -7.4,-1.6 -10.3,-3.3 -9.5,-5.4 0.5,-1.4 3.6,-10.8 6.1,-19 0.3,-1 0.8,-1 2.6,0.2 5.8,3.7 15.1,2.8 20.8,-2.1 3.4,-2.8 8,-11.1 8,-14.3 0,-1.1 -2.5,-11.8 -5.6,-23.8 -3.1,-11.9 -8,-31.1 -11,-42.7 -2.9,-11.5 -5.4,-21.3 -5.4,-21.7 0,-0.5 6,-0.8 13.3,-0.8 h 13.2 l 6.3,29.3 c 3.5,16 6.7,30.3 7.2,31.7 0.7,2.4 0.8,2.4 2.4,-1.5 0.9,-2.2 8.3,-16.5 16.3,-31.7 L 832.3,622 h 12.9 c 7,0 12.8,0.2 12.8,0.5 0,0.3 -7.6,14.4 -16.9,31.3 -44.3,80.8 -43.5,79.5 -51.6,87.1 -6.1,5.8 -13.4,9.6 -21.5,11.1 -6.4,1.2 -7.9,1.2 -15,-0.4 z"
       id="path40"
       style="fill:#67bd38;fill-opacity:1" />
    <path
       d="m 639.6,713.3 c 0.3,-1.6 3.8,-22.6 7.8,-46.8 l 7.2,-44 13.3,-0.3 c 12.3,-0.2 13.2,-0.1 12.7,1.5 -0.2,1 -1,5.4 -1.6,9.8 -0.6,4.4 -3.8,24.5 -7.1,44.8 -3.2,20.2 -5.9,37 -5.9,37.2 0,0.3 -6.1,0.5 -13.5,0.5 h -13.4 z"
       id="path41"
       style="fill:#67bd38;fill-opacity:1" />
    <path
       d="m 691.7,715.3 c -0.4,-0.6 7.7,-52.9 10.7,-69.5 L 703,643 h -7.1 c -5.4,0 -7,-0.3 -6.6,-1.3 0.2,-0.7 1,-5.4 1.7,-10.5 l 1.3,-9.2 h 7.2 7.2 l 0.6,-5.2 c 2.8,-23.6 18.8,-37.2 41.8,-35.5 6.5,0.5 18.9,4 18.9,5.3 0,0.2 -2.1,4.6 -4.7,9.8 l -4.7,9.5 -3,-1.6 c -4.3,-2.2 -12.6,-2.2 -16,0.1 -3.2,2 -5.4,6.7 -6.3,13.1 l -0.6,4.5 h 11.2 11.1 l -0.1,3.3 c 0,1.7 -0.6,6.4 -1.2,10.2 l -1.2,7 -11.6,0.3 -11.5,0.3 -5.3,32.7 c -3,18 -5.6,34.3 -6,36.2 l -0.7,3.5 -12.6,0.3 c -7,0.1 -12.9,-0.1 -13.1,-0.5 z"
       id="path42"
       style="fill:#67bd38;fill-opacity:1" />
    <path
       d="m 317,623.2 c 0,-0.8 -3,-1.3 -9.2,-1.4 l -9.3,-0.2 8.9,-0.3 c 8.2,-0.4 12.1,0.5 10.3,2.4 -0.4,0.3 -0.7,0.1 -0.7,-0.5 z"
       id="path43"
       style="fill:#139f2c" />
    <path
       d="m 538,623.2 c 0,-0.8 -2.9,-1.3 -8.7,-1.4 l -8.8,-0.2 8.4,-0.3 c 7.8,-0.4 11.6,0.6 9.8,2.4 -0.4,0.3 -0.7,0.1 -0.7,-0.5 z"
       id="path44"
       style="fill:#139f2c" />
    <path
       d="m 347.3,619.3 c 0.9,-0.2 2.5,-0.2 3.5,0 0.9,0.3 0.1,0.5 -1.8,0.5 -1.9,0 -2.7,-0.2 -1.7,-0.5 z"
       id="path45"
       style="fill:#139f2c" />
    <path
       d="m 447.8,619.3 c 1.2,-0.2 3.2,-0.2 4.5,0 1.2,0.2 0.2,0.4 -2.3,0.4 -2.5,0 -3.5,-0.2 -2.2,-0.4 z"
       id="path46"
       style="fill:#139f2c" />
    <path
       d="M 664.5,607.6 C 656.5,604 654,596 658.2,588 c 5.6,-10.3 20.7,-12.5 27.1,-3.9 2.8,3.8 3.2,10.6 1,14.9 -3.8,7.3 -15,11.8 -21.8,8.6 z"
       id="path47"
       style="fill:#67bd38;fill-opacity:1" />
    <path
       d="m 232.8,607.3 c 1.2,-0.2 3,-0.2 4,0 0.9,0.3 -0.1,0.5 -2.3,0.4 -2.2,0 -3,-0.2 -1.7,-0.4 z"
       id="path48"
       style="fill:#139f2c" />
  </g>
  <g
     id="g51"
     transform="translate(-167,-259.05679)">
    <path
       d="m 341.6,517.5 c -24.9,-9.5 -42.4,-57.3 -44.3,-121 -1.6,-54 10.3,-103.4 30.5,-126.5 2.7,-3.1 6.6,-6.1 10.7,-8.1 5.7,-2.8 7.1,-3.1 13.4,-2.7 8.9,0.5 10.2,1.5 6.8,6 -15.7,20.8 -25.7,57.1 -28.8,104.7 -2.3,35.4 2.8,79.6 12.7,110 3.3,10 10.5,25.1 15,31.3 2.4,3.4 3.2,5.4 2.6,6 -1.8,1.8 -14.3,1.9 -18.6,0.3 z"
       id="path9"
       style="fill:#010101" />
    <path
       d="m 664.8,517.9 -2.6,-1 5.3,-8 c 11.5,-17.2 19.6,-43.6 24.1,-79.4 2.6,-19.7 2.6,-65.8 0.1,-83.5 -5.1,-36.5 -13,-61.2 -24.8,-78 -5.2,-7.4 -4.6,-8.3 5,-8.8 5.8,-0.4 7.8,0 12.3,2.1 9.2,4.3 17,13.5 23.9,28.1 14,29.9 20.9,75.4 18,118.1 -4,57 -19.5,98.4 -40.7,108.5 -5.5,2.6 -16.3,3.6 -20.6,1.9 z"
       id="path10"
       style="fill:#010101" />
    <path
       d="m 380.1,514.8 c -7.6,-2.2 -18,-16.5 -24.7,-34.4 -3.7,-9.9 -8.1,-28.8 -10.7,-45.9 -1.9,-13.1 -2.2,-18.9 -2.2,-46.5 0,-27.6 0.3,-33.4 2.3,-46.9 9.5,-63.9 33.8,-95.1 55.9,-71.8 8.5,9 15.7,25.7 20.7,48 2.8,12.2 5.6,30 5.6,35.5 v 3.2 h -12.5 c -11.6,0 -12.7,-0.2 -16.1,-2.5 -4.4,-3 -5,-3 -9.1,-0.5 -7.1,4.3 -11.9,16.4 -13,32.6 -1.5,23.5 8.5,43.5 18.6,37.2 1.8,-1.1 1.8,-1.3 -0.8,-3.9 -4.7,-4.6 -6.6,-12.6 -6.5,-26.9 0,-10.3 0.4,-13.4 2.1,-17.5 l 2.1,-5 119.6,-0.3 119.5,-0.2 1.5,2.2 c 4.1,6.4 5.8,23.1 3.5,34 -1.5,7.2 -4.8,14 -7.1,14.6 -2.3,0.6 -2.3,1.9 0.1,3.2 3.4,1.8 6.2,1.1 9.5,-2.2 13.4,-13.5 11.3,-57.4 -3.3,-67.7 -3.8,-2.7 -6.3,-2.6 -9.9,0.4 -2.8,2.4 -3.6,2.5 -15.5,2.5 -6.9,0 -12.8,-0.3 -13,-0.7 -0.6,-1 1.8,-19.5 3.9,-30.3 5.5,-28.2 16.3,-52.5 26.4,-59.5 9.2,-6.4 17.2,-5.2 25.8,3.9 30.2,31.9 38.7,144.6 16,209.6 -12.4,35.3 -29.7,45.9 -45.8,28.3 -11.2,-12.2 -20.3,-38.3 -24.5,-69.8 -0.9,-6.6 -1.8,-13.5 -2.1,-15.2 l -0.5,-3.3 h -84.3 -84.3 l -0.7,8.1 c -2,24 -8.1,48.2 -16.6,65.5 -4.7,9.7 -6.9,13 -11,16.7 -6.8,6.1 -11.8,7.6 -18.9,5.5 z"
       id="path11"
       style="fill:#010101" />
    <path
       d="m 208.3,413 c -9.2,-3.7 -10.8,-32.3 -2.5,-41.2 2.6,-2.8 7.5,-3.8 8.7,-1.8 0.3,0.5 0.1,5.3 -0.4,10.7 -0.7,6.4 -0.7,13.2 0,20.2 0.9,9.6 0.8,10.7 -0.7,11.8 -2,1.5 -2.1,1.5 -5.1,0.3 z"
       id="path12"
       style="fill:#010101" />
    <path
       d="m 810.4,412.8 c -0.4,-0.7 -0.7,-10.5 -0.7,-21.7 0.1,-22.3 0.3,-23.1 5.6,-21.7 3.6,0.9 6.5,6.2 7.6,14.1 1.1,7.9 0,19.9 -2.4,24.4 -2.6,5.1 -8.3,7.8 -10.1,4.9 z"
       id="path13"
       style="fill:#010101" />
    <path
       d="m 287.5,489.1 c -12.7,-5.7 -24.1,-27.7 -29,-55.7 -4.3,-24.7 -4.6,-62 -0.6,-84.9 5.4,-31.9 15.8,-52.8 29.2,-59.3 4.2,-2 12.8,-3 14.1,-1.6 0.4,0.3 -1.1,5.4 -3.2,11.2 -6.8,19.3 -10.9,41.6 -13.1,71.9 -2.5,35.3 4,85.8 14.5,112.2 1.4,3.5 2.3,6.8 2,7.2 -0.9,1.6 -9.8,0.9 -13.9,-1 z"
       id="path34"
       style="fill:#67bd38;fill-opacity:1" />
    <path
       d="m 722,490.1 c 0,-0.5 1.1,-3.8 2.5,-7.4 6,-16 11.5,-42.8 13.6,-66.7 1.7,-19.1 0.7,-55.6 -2.1,-73.4 -2.4,-15.6 -7.6,-36.9 -11.5,-46.6 -1.4,-3.5 -2.3,-7 -2,-7.7 0.6,-1.8 8.7,-1.7 13,0.1 11.9,5 19.7,17.7 26.5,43 5,18.5 6.4,31.3 6.4,57.1 0.1,29.7 -2.1,45.8 -9.1,67 -5.5,17.1 -14.1,29.6 -22.8,33.6 -4.1,1.9 -14.5,2.6 -14.5,1 z"
       id="path35"
       style="fill:#67bd38;fill-opacity:1" />
    <path
       d="m 240,450.2 c -1.9,-1 -4.9,-3.9 -6.6,-6.4 -13.4,-19.7 -14.1,-82.2 -1.1,-103.6 4.5,-7.5 12.2,-11.7 16.1,-8.9 1.7,1.2 1.7,1.7 0.2,7.5 -5.1,19.3 -6.9,51.7 -4.2,74.7 0.9,7.7 2.6,19.1 3.8,25.3 1.9,9.7 2,11.5 0.7,12.3 -2.2,1.4 -5.1,1.1 -8.9,-0.9 z"
       id="path36"
       style="fill:#67bd38;fill-opacity:1" />
    <path
       d="m 774.1,451.1 c -1.2,-0.8 -1.1,-2.2 0.7,-9.3 7,-28.1 7.8,-67.7 2,-95.3 -3.1,-14.6 -3.1,-14.9 1.5,-15.3 10.7,-0.9 18.6,13.5 21.8,39.8 2.2,17.7 -0.4,49.4 -5.1,62.8 -4.5,13 -14.6,21.3 -20.9,17.3 z"
       id="path37"
       style="fill:#67bd38;fill-opacity:1" />
    <path
       d="m 726.3,394 c 0,-2.5 0.2,-3.5 0.4,-2.2 0.2,1.2 0.2,3.2 0,4.5 -0.2,1.2 -0.4,0.2 -0.4,-2.3 z"
       id="path49"
       style="fill:#139f2c" />
    <path
       d="m 726.3,381 c 0,-2.5 0.2,-3.5 0.4,-2.2 0.2,1.2 0.2,3.2 0,4.5 -0.2,1.2 -0.4,0.2 -0.4,-2.3 z"
       id="path50"
       style="fill:#139f2c" />
  </g>
</svg>
